Simulation
nRows=28
nColumns=15
endheader
time  TH_x TH_y TH_z SC_y  SC_z  SC_x  AC_y  AC_z  AC_x  GH_y  GH_z  GH_yy  EL_x  PS_y
0.0  0.000000  0.000000  0.000000  -21.481837363305974  5.049547332879065  0.3347068766571287  51.4357165498955  7.417251425035803  0.12727149181458355  176.00185748408805  1.6389454724989974  -133.033305612221  20.87333514901162  120.000000
0.05362  0.000000  0.000000  0.000000  -20.7869681592238  4.962796760174896  -0.6401751725373006  51.56611409172103  7.359267531576341  0.7576390911524784  -38.58823688211899  1.5445896106944363  79.89919632440377  20.202052828471597  120.000000
0.10724  0.000000  0.000000  0.000000  -20.202738916256774  4.847869852453617  -1.6049320770265372  51.67888797409272  7.218559465445086  1.3723682281608762  -26.656803315062223  4.449805763184061  66.1943116155279  19.53002154942729  120.000000
0.16086  0.000000  0.000000  0.000000  -19.80426070151692  4.736121552768778  -2.5761834055957267  51.75403193480298  7.054857839946955  1.9584178608918066  -23.87512034283839  7.315534083786562  61.39966406786835  18.823901993253635  120.000000
0.21448  0.000000  0.000000  0.000000  -19.645414419257413  4.649361639624753  -3.5334798215549643  51.78228678939873  6.938435587284702  2.5148627481857635  -22.373145637186195  10.129574926458558  57.566661041036305  18.072429314884193  120.000000
0.2681  0.000000  0.000000  0.000000  -19.743225443429743  4.611621616403834  -4.436256657869387  51.7693105518474  6.949052550547482  3.0406479391503987  -21.35826261748896  12.932223049315835  53.887313877344965  17.276272936314836  120.000000
0.32172  0.000000  0.000000  0.000000  -20.09149480430749  4.646519128547201  -5.243564133926909  51.72281998388911  7.14566764040589  3.538080625638728  -20.687690999450837  15.768770394269225  50.25505695997137  16.44722131679178  120.000000
0.37534  0.000000  0.000000  0.000000  -20.671353558687066  4.769853799801157  -5.921577804477241  51.65028637329163  7.551319946069307  4.007028809392458  -20.336004267272983  18.675185336852948  46.71611284176838  15.603939293242913  120.000000
0.42896  0.000000  0.000000  0.000000  -21.458620153635383  4.989694051524278  -6.446964766630463  51.554793727049706  8.151193763243114  4.447107659936147  -20.28613760853342  21.671155869922625  43.34661250460942  14.77036314007738  120.000000
0.48258  0.000000  0.000000  0.000000  -22.42492969753212  5.303319656886341  -6.803798437541399  51.43704236038653  8.899733166275956  4.8571797387928335  -20.506175035899215  24.758279794110496  40.22016006187834  13.969881506693946  120.000000
0.5362  0.000000  0.000000  0.000000  -23.538552185551488  5.70141454117454  -6.983532021636899  51.300541230596416  9.733565716091034  5.23633666814643  -20.929635963811066  27.920126988417568  37.377467949992784  13.221734246546445  120.000000
0.58982  0.000000  0.000000  0.000000  -24.764091777500468  6.169218306681825  -6.981095753285606  51.155132846556704  10.587368642418284  5.5850694104202665  -21.461910884873518  31.12722900306175  34.82271585124428  12.537993293875875  120.000000
0.64344  0.000000  0.000000  0.000000  -26.065268257374647  6.692109961258739  -6.79365513870573  51.017198692919976  11.403806849850293  5.9054140416424445  -21.993092395119223  34.341258200453936  32.52399382064618  11.924189148052898  120.000000
0.69706  0.000000  0.000000  0.000000  -27.410173335550965  7.257161367292203  -6.422306059848915  50.90614704016214  12.140965326204974  6.200859548746154  -22.420684636375203  37.51916369442833  30.42568036337279  11.377040267875376  120.000000
0.75068  0.000000  0.000000  0.000000  -28.774389685822154  7.854601491810411  -5.877552942122056  50.840366210970885  12.779121549023506  6.479334293716781  -22.660319603534763  40.617500147066345  28.453316051833486  10.882265933645492  120.000000
0.8043  0.000000  0.000000  0.000000  -30.140693418077795  8.475970678069052  -5.166235837255312  50.834558978897235  13.314516375707715  6.748391441090201  -22.655070259704573  43.599409175525  26.526234764653676  10.414477968383238  120.000000
0.85792  0.000000  0.000000  0.000000  -31.494892016520772  9.114790104080697  -4.292215797206708  50.89760405751879  13.755221750769467  7.012205872706979  -22.382195980410945  46.437163444438546  24.575958827979214  9.943952772159127  120.000000
0.91154  0.000000  0.000000  0.000000  -32.82201404239039  9.761730255483435  -3.267300822865517  51.0247911211244  14.121484821429346  7.278088497358755  -21.859259193890253  49.11326347595726  22.56730452699342  9.447342676832022  120.000000
0.96516  0.000000  0.000000  0.000000  -34.1017081538311  10.40626408934238  -2.114000873972879  51.198836508965705  14.433819441735155  7.546804138722695  -21.142377413024278  51.614790314818244  20.51107762864264  8.920216851353807  120.000000
1.01878  0.000000  0.000000  0.000000  -35.305651995253584  11.032184727462848  -0.861637638843834  51.39040381452887  14.701416991210015  7.810119293394525  -20.3163503332972  53.926456805571824  18.463780852896797  8.381039690316614  120.000000
1.0724  0.000000  0.000000  0.000000  -36.40408573295509  11.621926362303077  0.45064335302099334  51.564532471518476  14.924663913720916  8.055893298404003  -19.47452744209898  56.02817564334818  16.509818509074282  7.864470957415017  120.000000
1.12602  0.000000  0.000000  0.000000  -37.37524086379395  12.164258527235773  1.7762758873155822  51.69284176952131  15.100103685221034  8.270802257483556  -18.69722592075131  57.9018922397307  14.737434754301018  7.408712672612043  120.000000
1.17964  0.000000  0.000000  0.000000  -38.213603428774505  12.651784071413305  3.0681650750063216  51.761974628606154  15.219272602600437  8.443731247873298  -18.038715767901635  59.53477977100374  13.221022641523207  7.046388258045251  120.000000
1.23326  0.000000  0.000000  0.000000  -38.92620032107254  13.079312068992891  4.279544707204593  51.77833388477482  15.268805342297734  8.563697659644397  -17.526206547009377  60.91798878146736  12.011538432400862  6.799587221427581  120.000000
1.28688  0.000000  0.000000  0.000000  -39.526525417457634  13.444269446540716  5.368547594904681  51.760601070582695  15.235876586771196  8.623609139810872  -17.163244740452146  62.04840897658041  11.132027052626313  6.680119719129708  120.000000
1.3405  0.000000  0.000000  0.000000  -40.02797799041213  13.748604055644096  6.301903388017116  51.72997723483443  15.114816298377733  8.62061897031525  -16.938061968763396  62.93265728372297  10.576998571247008  6.687067734297519  120.000000
1.39412  0.000000  0.000000  0.000000  -40.441158724375576  13.996215313448797  7.062953413558093  51.70104912488637  14.913693596586837  8.558335399857388  -16.830715098411137  63.58930643446847  10.31248967125844  6.800670320881112  120.000000
1.44774  0.000000  0.000000  0.000000  -40.77243915202243  14.190050783146022  7.656263520040408  51.67865610648929  14.65687804117261  8.44659059361471  -16.818047235455907  64.04916792751173  10.279313459692915  6.977829553294271  120.000000
